<svg xmlns="http://www.w3.org/2000/svg" xmlns:xlink="http://www.w3.org/1999/xlink" viewBox="200 620 1050 230" preserveAspectRatio="xMidYMid meet"><defs><g/></defs><g fill="#f6f6f6" fill-opacity="1"><g transform="translate(765.839023, 778.947225)"><g><path d="M 52.96875 -99.0625 C 60.757812 -99.0625 67.921875 -97.046875 74.453125 -93.015625 L 97.1875 -93.015625 C 99.132812 -93.015625 100.28125 -92.734375 100.625 -92.171875 C 100.96875 -91.617188 101.140625 -90.160156 101.140625 -87.796875 C 101.140625 -85.710938 101 -84.425781 100.71875 -83.9375 C 100.445312 -83.445312 99.613281 -83.203125 98.21875 -83.203125 L 82.375 -83.203125 C 84.320312 -80.148438 85.710938 -77.300781 86.546875 -74.65625 C 87.378906 -72.019531 87.796875 -68.960938 87.796875 -65.484375 C 87.796875 -59.085938 86.265625 -53.351562 83.203125 -48.28125 C 80.148438 -43.207031 75.875 -39.242188 70.375 -36.390625 C 64.882812 -33.535156 58.664062 -32.109375 51.71875 -32.109375 C 47.269531 -32.109375 42.679688 -32.804688 37.953125 -34.203125 C 32.390625 -29.191406 29.609375 -25.019531 29.609375 -21.6875 C 29.609375 -19.882812 30.613281 -18.425781 32.625 -17.3125 C 34.644531 -16.195312 38.851562 -15.640625 45.25 -15.640625 L 69.03125 -15.640625 C 77.375 -15.640625 84.671875 -13.832031 90.921875 -10.21875 C 97.179688 -6.601562 100.3125 -1.246094 100.3125 5.84375 C 100.3125 12.507812 97.804688 18.796875 92.796875 24.703125 C 87.796875 30.617188 81.160156 35.347656 72.890625 38.890625 C 64.617188 42.441406 55.753906 44.21875 46.296875 44.21875 C 39.898438 44.21875 33.609375 43.273438 27.421875 41.390625 C 21.234375 39.515625 16.226562 37.046875 12.40625 33.984375 C 8.582031 30.929688 6.671875 27.804688 6.671875 24.609375 C 6.671875 21.960938 7.921875 18.796875 10.421875 15.109375 C 12.929688 11.429688 18.285156 5.488281 26.484375 -2.71875 C 19.535156 -4.800781 16.0625 -8.207031 16.0625 -12.9375 C 16.0625 -16.6875 17.519531 -20.472656 20.4375 -24.296875 C 23.351562 -28.117188 27.453125 -32.113281 32.734375 -36.28125 C 27.179688 -39.207031 22.875 -43.207031 19.8125 -48.28125 C 16.75 -53.351562 15.21875 -58.878906 15.21875 -64.859375 C 15.21875 -71.253906 16.851562 -77.054688 20.125 -82.265625 C 23.394531 -87.484375 27.910156 -91.585938 33.671875 -94.578125 C 39.441406 -97.566406 45.875 -99.0625 52.96875 -99.0625 Z M 32.953125 -73.609375 C 32.953125 -68.472656 33.644531 -63.125 35.03125 -57.5625 C 36.425781 -52 38.789062 -47.234375 42.125 -43.265625 C 45.457031 -39.304688 49.695312 -37.328125 54.84375 -37.328125 C 59.4375 -37.328125 63.125 -39.515625 65.90625 -43.890625 C 68.6875 -48.273438 70.078125 -53.875 70.078125 -60.6875 C 70.078125 -64.851562 69.3125 -69.472656 67.78125 -74.546875 C 66.25 -79.628906 63.882812 -84.007812 60.6875 -87.6875 C 57.488281 -91.375 53.390625 -93.21875 48.390625 -93.21875 C 44.210938 -93.21875 40.59375 -91.441406 37.53125 -87.890625 C 34.476562 -84.347656 32.953125 -79.585938 32.953125 -73.609375 Z M 64.65625 0.203125 L 56.9375 0.203125 C 50.675781 0.203125 45.5625 0.0976562 41.59375 -0.109375 C 37.632812 -0.316406 34.195312 -0.835938 31.28125 -1.671875 C 28.082031 1.941406 25.71875 5.171875 24.1875 8.015625 C 22.65625 10.867188 21.890625 13.617188 21.890625 16.265625 C 21.890625 21.273438 25.332031 25.097656 32.21875 27.734375 C 39.101562 30.378906 47.410156 31.703125 57.140625 31.703125 C 64.085938 31.703125 70.34375 30.796875 75.90625 28.984375 C 81.46875 27.179688 85.847656 24.679688 89.046875 21.484375 C 92.242188 18.285156 93.84375 14.738281 93.84375 10.84375 C 93.84375 6.394531 91.515625 3.546875 86.859375 2.296875 C 82.203125 1.046875 74.800781 0.347656 64.65625 0.203125 Z M 64.65625 0.203125 "/></g></g></g><g fill="#f6f6f6" fill-opacity="1"><g transform="translate(855.513019, 778.947225)"><g><path d="M 38.375 -27.53125 C 38.375 -22.519531 39.898438 -18.414062 42.953125 -15.21875 C 46.015625 -12.019531 49.769531 -10.421875 54.21875 -10.421875 C 58.25 -10.421875 62.421875 -11.5 66.734375 -13.65625 C 71.046875 -15.8125 75.148438 -18.976562 79.046875 -23.15625 L 79.046875 -80.921875 C 79.046875 -88.984375 74.316406 -93.015625 64.859375 -93.015625 L 62.765625 -93.015625 L 62.765625 -96.765625 L 96.140625 -96.765625 L 96.140625 -22.515625 C 96.140625 -20.015625 96.867188 -17.476562 98.328125 -14.90625 C 99.785156 -12.332031 102.113281 -11.046875 105.3125 -11.046875 C 107.125 -11.046875 109.421875 -11.601562 112.203125 -12.71875 L 112.203125 -8.765625 L 83 2.5 L 79.046875 2.5 L 79.046875 -17.9375 L 78.625 -17.9375 C 67.363281 -4.03125 56.519531 2.921875 46.09375 2.921875 C 40.8125 2.921875 36.289062 1.566406 32.53125 -1.140625 C 28.78125 -3.859375 25.960938 -7.300781 24.078125 -11.46875 C 22.203125 -15.632812 21.265625 -19.875 21.265625 -24.1875 L 21.265625 -79.25 C 21.265625 -84.664062 20.046875 -88.3125 17.609375 -90.1875 C 15.179688 -92.070312 11.394531 -93.015625 6.25 -93.015625 L 3.75 -93.015625 L 3.75 -96.765625 L 38.375 -96.765625 Z M 38.375 -27.53125 "/></g></g></g><g fill="#f6f6f6" fill-opacity="1"><g transform="translate(956.031355, 778.947225)"><g><path d="M 49.84375 -99.0625 C 70.695312 -99.0625 81.125 -90.71875 81.125 -74.03125 L 81.125 -18.765625 C 81.125 -15.015625 81.679688 -12.546875 82.796875 -11.359375 C 83.910156 -10.179688 85.367188 -9.59375 87.171875 -9.59375 C 89.253906 -9.59375 91.195312 -10.179688 93 -11.359375 C 94.8125 -12.546875 97.457031 -14.804688 100.9375 -18.140625 L 100.9375 -12.9375 C 95.65625 -6.957031 91.3125 -2.816406 87.90625 -0.515625 C 84.5 1.773438 80.988281 2.921875 77.375 2.921875 C 73.34375 2.921875 70.109375 1.496094 67.671875 -1.34375 C 65.242188 -4.195312 64.03125 -8.40625 64.03125 -13.96875 C 57.90625 -8.132812 52.234375 -3.859375 47.015625 -1.140625 C 41.804688 1.566406 36.144531 2.921875 30.03125 2.921875 C 23.914062 2.921875 18.769531 0.628906 14.59375 -3.953125 C 10.425781 -8.546875 8.34375 -14.109375 8.34375 -20.640625 C 8.34375 -31.765625 14.25 -40.382812 26.0625 -46.5 C 37.320312 -52.476562 49.976562 -57.972656 64.03125 -62.984375 L 64.03125 -68.828125 C 64.03125 -74.378906 63.644531 -78.820312 62.875 -82.15625 C 62.113281 -85.5 60.375 -88.175781 57.65625 -90.1875 C 54.945312 -92.207031 50.8125 -93.21875 45.25 -93.21875 C 39.832031 -93.21875 35.800781 -91.894531 33.15625 -89.25 C 30.519531 -86.613281 29.203125 -83.347656 29.203125 -79.453125 L 29.40625 -74.03125 C 29.40625 -71.664062 28.640625 -69.71875 27.109375 -68.1875 C 25.578125 -66.664062 23.628906 -65.90625 21.265625 -65.90625 C 18.628906 -65.90625 16.472656 -66.664062 14.796875 -68.1875 C 13.128906 -69.71875 12.296875 -71.875 12.296875 -74.65625 C 12.296875 -81.613281 15.5625 -87.421875 22.09375 -92.078125 C 28.632812 -96.734375 37.882812 -99.0625 49.84375 -99.0625 Z M 26.0625 -26.0625 C 26.0625 -21.34375 27.554688 -17.3125 30.546875 -13.96875 C 33.535156 -10.632812 37.253906 -8.96875 41.703125 -8.96875 C 48.796875 -8.96875 56.238281 -12.441406 64.03125 -19.390625 L 64.03125 -57.34375 C 54.289062 -53.3125 46.78125 -49.800781 41.5 -46.8125 C 36.21875 -43.820312 32.320312 -40.726562 29.8125 -37.53125 C 27.3125 -34.332031 26.0625 -30.507812 26.0625 -26.0625 Z M 26.0625 -26.0625 "/></g></g></g><g fill="#f6f6f6" fill-opacity="1"><g transform="translate(1045.705362, 778.947225)"><g><path d="M 38.578125 -79.453125 L 39 -79.453125 C 42.613281 -85.847656 46.539062 -90.710938 50.78125 -94.046875 C 55.019531 -97.390625 59.78125 -99.0625 65.0625 -99.0625 C 68.820312 -99.0625 71.878906 -97.910156 74.234375 -95.609375 C 76.597656 -93.316406 77.78125 -90.503906 77.78125 -87.171875 C 77.78125 -84.523438 76.84375 -82.296875 74.96875 -80.484375 C 73.09375 -78.679688 70.972656 -77.78125 68.609375 -77.78125 C 66.660156 -77.78125 65.0625 -78.160156 63.8125 -78.921875 C 62.5625 -79.691406 61.3125 -80.703125 60.0625 -81.953125 C 59.78125 -82.097656 59.289062 -82.515625 58.59375 -83.203125 C 57.90625 -83.898438 57.175781 -84.421875 56.40625 -84.765625 C 55.644531 -85.117188 54.847656 -85.296875 54.015625 -85.296875 C 50.816406 -85.296875 48.066406 -84.007812 45.765625 -81.4375 C 43.472656 -78.863281 41.078125 -75.351562 38.578125 -70.90625 L 38.578125 -22.109375 C 38.578125 -16.679688 39.164062 -12.644531 40.34375 -10 C 41.53125 -7.363281 43.375 -5.660156 45.875 -4.890625 C 48.382812 -4.128906 52.070312 -3.75 56.9375 -3.75 L 56.9375 0 L 5.625 0 L 5.625 -3.75 L 6.671875 -3.75 C 11.816406 -3.75 15.570312 -5 17.9375 -7.5 C 20.300781 -10.007812 21.484375 -14.597656 21.484375 -21.265625 L 21.484375 -68.828125 C 21.484375 -75.359375 20.785156 -79.628906 19.390625 -81.640625 C 18.003906 -83.660156 15.570312 -84.671875 12.09375 -84.671875 C 10.007812 -84.671875 8.269531 -84.253906 6.875 -83.421875 L 5.625 -86.96875 L 34.828125 -99.0625 L 38.578125 -99.0625 Z M 38.578125 -79.453125 "/></g></g></g><g fill="#f6f6f6" fill-opacity="1"><g transform="translate(1108.47707, 778.947225)"><g><path d="M 94.890625 -149.53125 L 94.890625 -27.734375 C 94.890625 -21.054688 95.617188 -16.675781 97.078125 -14.59375 C 98.535156 -12.507812 100.796875 -11.46875 103.859375 -11.46875 C 105.242188 -11.46875 107.328125 -11.957031 110.109375 -12.9375 L 111.578125 -9.59375 L 77.78125 2.5 L 77.78125 -11.265625 C 73.0625 -6.398438 68.40625 -2.816406 63.8125 -0.515625 C 59.226562 1.773438 54.15625 2.921875 48.59375 2.921875 C 41.082031 2.921875 34.128906 0.761719 27.734375 -3.546875 C 21.335938 -7.859375 16.226562 -13.695312 12.40625 -21.0625 C 8.582031 -28.425781 6.671875 -36.351562 6.671875 -44.84375 C 6.671875 -54.4375 8.929688 -63.398438 13.453125 -71.734375 C 17.972656 -80.078125 23.984375 -86.71875 31.484375 -91.65625 C 38.992188 -96.59375 47.0625 -99.0625 55.6875 -99.0625 C 59.71875 -99.0625 63.46875 -98.503906 66.9375 -97.390625 C 70.414062 -96.273438 74.03125 -94.398438 77.78125 -91.765625 L 77.78125 -121.578125 C 77.78125 -130.335938 74.796875 -134.71875 68.828125 -134.71875 C 67.847656 -134.71875 66.941406 -134.613281 66.109375 -134.40625 C 65.273438 -134.195312 64.234375 -133.816406 62.984375 -133.265625 L 61.3125 -136.8125 L 91.34375 -149.53125 Z M 25.4375 -52.34375 C 25.4375 -44.28125 26.929688 -36.945312 29.921875 -30.34375 C 32.910156 -23.738281 36.941406 -18.488281 42.015625 -14.59375 C 47.097656 -10.707031 52.695312 -8.765625 58.8125 -8.765625 C 66.320312 -8.765625 72.644531 -11.960938 77.78125 -18.359375 L 77.78125 -65.484375 C 77.78125 -72.578125 76.320312 -78.171875 73.40625 -82.265625 C 70.488281 -86.367188 67.148438 -89.21875 63.390625 -90.8125 C 59.640625 -92.414062 56.234375 -93.21875 53.171875 -93.21875 C 48.304688 -93.21875 43.753906 -91.410156 39.515625 -87.796875 C 35.273438 -84.179688 31.867188 -79.242188 29.296875 -72.984375 C 26.722656 -66.734375 25.4375 -59.851562 25.4375 -52.34375 Z M 25.4375 -52.34375 "/></g></g></g><g fill="#f6f6f6" fill-opacity="1"><g transform="translate(231.558323, 778.294425)"><g><path d="M 71.734375 -95.3125 C 77.992188 -95.3125 83 -93.742188 86.75 -90.609375 C 90.507812 -87.484375 92.390625 -83.347656 92.390625 -78.203125 C 92.390625 -73.472656 90.894531 -69.441406 87.90625 -66.109375 C 84.914062 -62.773438 81.40625 -61.109375 77.375 -61.109375 C 74.59375 -61.109375 72.191406 -62.113281 70.171875 -64.125 C 68.160156 -66.144531 67.15625 -68.546875 67.15625 -71.328125 C 67.15625 -73.691406 67.675781 -75.566406 68.71875 -76.953125 C 69.757812 -78.347656 71.179688 -79.738281 72.984375 -81.125 C 74.515625 -82.375 75.554688 -83.378906 76.109375 -84.140625 C 76.671875 -84.910156 76.953125 -85.851562 76.953125 -86.96875 C 76.953125 -88.21875 76.394531 -89.1875 75.28125 -89.875 C 74.164062 -90.570312 72.707031 -90.921875 70.90625 -90.921875 C 64.507812 -90.921875 58.671875 -87.550781 53.390625 -80.8125 C 48.109375 -74.070312 43.972656 -66.078125 40.984375 -56.828125 C 37.992188 -47.578125 36.5 -39.546875 36.5 -32.734375 C 36.5 -26.347656 38.023438 -21.238281 41.078125 -17.40625 C 44.140625 -13.582031 48.382812 -11.671875 53.8125 -11.671875 C 62.84375 -11.671875 71.53125 -15.84375 79.875 -24.1875 L 82.796875 -21.890625 C 75.148438 -13.140625 68.195312 -6.882812 61.9375 -3.125 C 55.675781 0.621094 48.863281 2.5 41.5 2.5 C 32.039062 2.5 24.492188 -0.3125 18.859375 -5.9375 C 13.234375 -11.570312 10.421875 -19.117188 10.421875 -28.578125 C 10.421875 -40.390625 13.722656 -51.40625 20.328125 -61.625 C 26.929688 -71.84375 35.066406 -80.007812 44.734375 -86.125 C 54.398438 -92.25 63.398438 -95.3125 71.734375 -95.3125 Z M 71.734375 -95.3125 "/></g></g></g><g fill="#f6f6f6" fill-opacity="1"><g transform="translate(312.473515, 778.294425)"><g><path d="M 42.125 -95.3125 C 41.988281 -85.019531 38.648438 -62.984375 32.109375 -29.203125 L 32.53125 -28.78125 C 40.875 -50.050781 46.78125 -64.785156 50.25 -72.984375 C 53.726562 -81.191406 56.894531 -86.960938 59.75 -90.296875 C 62.601562 -93.640625 65.972656 -95.3125 69.859375 -95.3125 C 73.054688 -95.3125 75.59375 -94.234375 77.46875 -92.078125 C 79.351562 -89.921875 80.296875 -86.960938 80.296875 -83.203125 C 80.296875 -77.503906 79.039062 -72.5 76.53125 -68.1875 C 74.03125 -63.882812 71.179688 -61.734375 67.984375 -61.734375 C 66.179688 -61.734375 64.753906 -62.21875 63.703125 -63.1875 C 62.660156 -64.164062 61.65625 -65.625 60.6875 -67.5625 C 59.71875 -69.65625 58.742188 -70.703125 57.765625 -70.703125 C 56.097656 -70.703125 53.382812 -67.050781 49.625 -59.75 C 45.875 -52.445312 41.984375 -43.269531 37.953125 -32.21875 C 33.921875 -21.164062 30.722656 -10.425781 28.359375 0 L 3.546875 0 L 12.296875 -40.25 C 15.773438 -56.238281 17.515625 -67.78125 17.515625 -74.875 C 17.515625 -80.570312 15.847656 -83.976562 12.515625 -85.09375 L 13.5625 -88.84375 L 38.578125 -95.3125 Z M 42.125 -95.3125 "/></g></g></g><g fill="#f6f6f6" fill-opacity="1"><g transform="translate(377.956374, 778.294425)"><g><path d="M 70.703125 -95.3125 C 76.117188 -95.3125 80.351562 -94.054688 83.40625 -91.546875 C 86.46875 -89.046875 88 -85.503906 88 -80.921875 C 88 -74.242188 85.566406 -67.773438 80.703125 -61.515625 C 75.835938 -55.265625 69.0625 -50.085938 60.375 -45.984375 C 51.6875 -41.878906 41.988281 -39.550781 31.28125 -39 C 31 -37.46875 30.859375 -35.171875 30.859375 -32.109375 C 30.859375 -24.460938 32.390625 -18.972656 35.453125 -15.640625 C 38.515625 -12.304688 42.40625 -10.640625 47.125 -10.640625 C 52.6875 -10.640625 57.757812 -11.925781 62.34375 -14.5 C 66.9375 -17.070312 71.53125 -20.71875 76.125 -25.4375 L 78.625 -22.515625 C 65.132812 -5.835938 50.394531 2.5 34.40625 2.5 C 25.375 2.5 18.390625 0 13.453125 -5 C 8.515625 -10.007812 6.046875 -17.03125 6.046875 -26.0625 C 6.046875 -37.46875 9.242188 -48.519531 15.640625 -59.21875 C 22.035156 -69.925781 30.269531 -78.617188 40.34375 -85.296875 C 50.425781 -91.972656 60.546875 -95.3125 70.703125 -95.3125 Z M 32.53125 -43.59375 C 38.789062 -44.425781 43.3125 -45.429688 46.09375 -46.609375 C 48.875 -47.796875 51.722656 -49.914062 54.640625 -52.96875 C 58.804688 -57.28125 61.863281 -62.320312 63.8125 -68.09375 C 65.757812 -73.863281 66.734375 -78.832031 66.734375 -83 C 66.734375 -87.445312 65.132812 -89.671875 61.9375 -89.671875 C 58.875 -89.671875 55.429688 -87.445312 51.609375 -83 C 47.785156 -78.550781 44.171875 -72.78125 40.765625 -65.6875 C 37.359375 -58.601562 34.613281 -51.238281 32.53125 -43.59375 Z M 32.53125 -43.59375 "/></g></g></g><g fill="#f6f6f6" fill-opacity="1"><g transform="translate(458.871566, 778.294425)"><g><path d="M 118.875 -146.40625 L 82.796875 -28.15625 C 81.265625 -23.5625 80.5 -19.875 80.5 -17.09375 C 80.5 -15.425781 80.84375 -14.140625 81.53125 -13.234375 C 82.226562 -12.335938 83.207031 -11.890625 84.46875 -11.890625 C 86.820312 -11.890625 89.003906 -12.894531 91.015625 -14.90625 C 93.035156 -16.925781 95.300781 -20.160156 97.8125 -24.609375 L 100.9375 -22.734375 C 93.289062 -5.910156 82.375 2.5 68.1875 2.5 C 63.46875 2.5 59.820312 1.285156 57.25 -1.140625 C 54.675781 -3.578125 53.390625 -7.019531 53.390625 -11.46875 C 53.390625 -16.195312 54.914062 -23.007812 57.96875 -31.90625 L 57.5625 -32.328125 C 51.445312 -19.671875 45.710938 -10.703125 40.359375 -5.421875 C 35.003906 -0.140625 29.546875 2.5 23.984375 2.5 C 18.421875 2.5 13.96875 0.273438 10.625 -4.171875 C 7.289062 -8.617188 5.625 -14.664062 5.625 -22.3125 C 5.625 -33.300781 8.367188 -44.492188 13.859375 -55.890625 C 19.359375 -67.285156 26.378906 -76.703125 34.921875 -84.140625 C 43.472656 -91.585938 51.921875 -95.3125 60.265625 -95.3125 C 63.742188 -95.3125 66.59375 -94.71875 68.8125 -93.53125 C 71.039062 -92.351562 73.0625 -90.375 74.875 -87.59375 L 84.671875 -119.5 C 84.953125 -120.46875 85.265625 -121.820312 85.609375 -123.5625 C 85.953125 -125.300781 86.125 -126.65625 86.125 -127.625 C 86.125 -129.851562 85.253906 -131.765625 83.515625 -133.359375 C 81.785156 -134.960938 79.457031 -135.972656 76.53125 -136.390625 L 77.78125 -140.359375 L 115.125 -146.40625 Z M 31.703125 -25.65625 C 31.703125 -22.457031 32.289062 -20.054688 33.46875 -18.453125 C 34.65625 -16.859375 36.222656 -16.0625 38.171875 -16.0625 C 42.472656 -16.0625 47.160156 -20.195312 52.234375 -28.46875 C 57.316406 -36.738281 61.695312 -46.15625 65.375 -56.71875 C 69.0625 -67.289062 70.90625 -75.148438 70.90625 -80.296875 C 70.90625 -83.492188 70.140625 -86.097656 68.609375 -88.109375 C 67.078125 -90.128906 65.0625 -91.140625 62.5625 -91.140625 C 57.976562 -91.140625 53.285156 -87.140625 48.484375 -79.140625 C 43.691406 -71.148438 39.695312 -61.835938 36.5 -51.203125 C 33.300781 -40.566406 31.703125 -32.050781 31.703125 -25.65625 Z M 31.703125 -25.65625 "/></g></g></g><g fill="#f6f6f6" fill-opacity="1"><g transform="translate(552.716498, 778.294425)"><g><path d="M 48.390625 -146.40625 C 52.691406 -146.40625 56.300781 -144.941406 59.21875 -142.015625 C 62.144531 -139.097656 63.609375 -135.484375 63.609375 -131.171875 C 63.609375 -126.867188 62.144531 -123.222656 59.21875 -120.234375 C 56.300781 -117.242188 52.691406 -115.75 48.390625 -115.75 C 44.078125 -115.75 40.425781 -117.242188 37.4375 -120.234375 C 34.445312 -123.222656 32.953125 -126.867188 32.953125 -131.171875 C 32.953125 -135.484375 34.445312 -139.097656 37.4375 -142.015625 C 40.425781 -144.941406 44.078125 -146.40625 48.390625 -146.40625 Z M 31.28125 -20.859375 C 30.3125 -17.515625 29.828125 -15.425781 29.828125 -14.59375 C 29.828125 -12.226562 30.726562 -11.046875 32.53125 -11.046875 C 34.476562 -11.046875 36.53125 -12.15625 38.6875 -14.375 C 40.84375 -16.601562 44.003906 -20.640625 48.171875 -26.484375 L 51.09375 -23.78125 C 44.832031 -14.1875 39.300781 -7.40625 34.5 -3.4375 C 29.707031 0.519531 24.328125 2.5 18.359375 2.5 C 13.765625 2.5 10.078125 1.316406 7.296875 -1.046875 C 4.515625 -3.410156 3.125 -6.535156 3.125 -10.421875 C 3.125 -13.347656 3.820312 -17.101562 5.21875 -21.6875 L 19.609375 -67.78125 C 21.128906 -73.195312 21.890625 -76.53125 21.890625 -77.78125 C 21.890625 -80.289062 20.878906 -82.132812 18.859375 -83.3125 C 16.847656 -84.5 14.242188 -85.09375 11.046875 -85.09375 L 10.015625 -85.09375 L 11.265625 -89.265625 L 50.046875 -95.3125 L 54.015625 -95.3125 Z M 31.28125 -20.859375 "/></g></g></g><g fill="#f6f6f6" fill-opacity="1"><g transform="translate(598.804736, 778.294425)"><g><path d="M 59.234375 -119.28125 L 63.390625 -119.28125 L 57.140625 -93.015625 L 71.53125 -93.015625 L 67.359375 -79.875 L 53.171875 -79.875 L 39 -26.6875 C 38.863281 -26.414062 38.34375 -24.503906 37.4375 -20.953125 C 36.53125 -17.410156 36.078125 -14.738281 36.078125 -12.9375 C 36.078125 -11.820312 36.390625 -10.847656 37.015625 -10.015625 C 37.640625 -9.179688 38.441406 -8.765625 39.421875 -8.765625 C 41.359375 -8.765625 43.546875 -10.015625 45.984375 -12.515625 C 48.421875 -15.015625 50.890625 -18.421875 53.390625 -22.734375 L 56.71875 -20.640625 C 52.132812 -12.859375 46.957031 -7.054688 41.1875 -3.234375 C 35.414062 0.585938 29.472656 2.5 23.359375 2.5 C 19.328125 2.5 16.09375 1.351562 13.65625 -0.9375 C 11.226562 -3.226562 10.015625 -6.179688 10.015625 -9.796875 C 10.015625 -11.609375 10.289062 -13.832031 10.84375 -16.46875 C 11.394531 -19.113281 11.945312 -21.546875 12.5 -23.765625 C 13.0625 -25.992188 13.484375 -27.597656 13.765625 -28.578125 L 27.109375 -79.875 L 12.09375 -79.875 L 15.015625 -89.265625 C 22.941406 -91.203125 30.34375 -94.707031 37.21875 -99.78125 C 44.101562 -104.863281 51.441406 -111.363281 59.234375 -119.28125 Z M 59.234375 -119.28125 "/></g></g></g></svg>